<?xml version="1.0" encoding="UTF-8"?>
<svg id="Layer_2" data-name="Layer 2" xmlns="http://www.w3.org/2000/svg" viewBox="0 0 19.45 9.64">
  <defs>
    <style>
      .cls-1 {
        fill: #283138;
      }

      .cls-2 {
        fill: #032943;
      }

      .cls-3 {
        fill: #273137;
      }
    </style>
  </defs>
  <g id="Layer_1-2" data-name="Layer 1">
    <path class="cls-2" d="M17.19,3.76l-.02-.02s-.03-.03.02.03c0,0-.05-.07-.05-.08-.03-.04-.05-.09-.07-.13-.05-.1.04.11,0,0,0-.03-.02-.06-.03-.09-.02-.06-.03-.12-.04-.18-.02-.11,0,.12,0,.01,0-.02,0-.05,0-.07,0-.05,0-.11,0-.16,0-.06.04-.08,0,.02,0-.01,0-.04.01-.06.01-.06.05-.13.06-.19,0,.09-.04.08-.01.03.01-.02.02-.04.03-.06.01-.02.03-.05.05-.07.05-.09-.08.08,0,.01.03-.03.07-.07.1-.1.07-.07-.1.06,0,0,.03-.01.05-.03.08-.05.1-.05,0-.01,0,0,0,0,.09-.03.1-.03.05-.02.11-.02.17-.04-.12.04-.04,0,0,0,.04,0,.07,0,.11,0,.02,0,.05,0,.07,0,.02,0,.05,0,.07,0-.07-.01-.08-.01-.03,0,.06.01.13.03.19.05.03,0,.06.02.08.03.11.04-.09-.05.01,0,.05.03.1.05.15.08l.03.02s.04.03-.02-.02c.02,0,.08.07.09.09.02.02.03.04.05.05.05.04-.07-.11-.02-.02.03.04.05.11.08.15,0,0-.04-.12-.02-.04,0,.03.02.05.03.08s.01.05.02.08c.02.09,0,.03,0-.02,0,.05,0,.11,0,.17,0,.05-.01.1,0,.14-.01-.12.01-.08,0-.02,0,.03-.01.06-.02.08-.01.06-.03.11-.05.17,0,.03-.02.05-.03.08.03-.12.03-.07,0-.03-.02.05-.05.09-.07.14-.02.04-.06.08-.08.12.05-.1.05-.06,0-.01-.02.03-.05.05-.07.08-.01.01-.03.02-.04.04-.1.09.07-.04,0,0-.04.03-.09.05-.13.08-.08.05.12-.04.03,0-.03.01-.06.02-.1.03-.01,0-.1.02-.02,0,.09-.02-.07,0-.08,0-.12,0,.09.03-.02,0-.05-.01-.09-.02-.13-.04-.03,0-.11-.05-.01,0-.05-.02-.1-.05-.14-.08-.03-.02-.06-.03-.08-.05-.11-.07.03.04-.04-.03-.06-.05-.12-.11-.18-.17-.17-.2-.53-.19-.71,0-.19.21-.19.5,0,.71.52.58,1.44.91,2.12.42.53-.38.85-1.01.85-1.66,0-.32-.08-.66-.27-.92-.23-.33-.57-.55-.96-.67-.73-.22-1.58-.03-2,.65s-.25,1.59.25,2.19c.17.2.53.19.71,0,.2-.21.18-.49,0-.71Z"/>
    <path class="cls-1" d="M3.28,6.21c.06-1.28,1.13-2.62,2.34-3.03.17-.06.43-.12.52-.07.18.11.3.47.47.63.32.31.75.48,1.19.53.41.04.9-.14,1.29,0,.28.1.48.43.48.72s-.29.44-.54.53c-.29.1-.6.15-.91.13-.38-.03-.74-.16-1.12-.16-.66,0-1.37.43-1.59,1.08-.12.36-.06.72.12,1.05.07.13.16.25.25.36.05.06.27.3.26.37.01-.05-.07.05-.09.06-.18.11-.39.18-.6.21-.4.06-.79-.02-1.11-.26-.65-.48-.95-1.37-.94-2.15,0-.64-.99-.64-1,0-.03,1.92,1.48,3.91,3.57,3.32.87-.25,1.53-1.01.93-1.87-.14-.2-.52-.52-.42-.8s.46-.39.71-.37c.42.03.82.17,1.24.17s.88-.11,1.27-.29c.92-.42,1.25-1.43.71-2.3-.28-.46-.73-.76-1.27-.82-.47-.05-.98.15-1.43-.03-.41-.17-.47-.59-.79-.86-.27-.23-.64-.29-.98-.25-.89.1-1.7.69-2.3,1.32-.71.76-1.21,1.72-1.26,2.77-.03.64.97.64,1,0Z"/>
    <path class="cls-1" d="M12.43,4.38c-.06-.07.03.02.03.04,0-.01-.03-.04-.04-.06-.02-.04-.04-.07-.06-.11l.05.12c-.03-.07-.05-.15-.06-.22l.02.13c-.01-.08,0-.17,0-.25l-.02.13c.01-.08.03-.15.06-.22l-.05.12s.04-.08.06-.12c.06-.09-.05.06-.03.03.02-.02.03-.03.05-.05.01-.01.03-.03.04-.04.06-.05-.12.08-.02.02.04-.03.08-.05.13-.07l-.12.05c.07-.03.15-.05.23-.06l-.13.02c.1-.01.19-.01.29,0l-.13-.02c.09.01.18.04.27.07l-.12-.05s.08.04.12.06c.02.01.04.02.05.04-.13-.08-.07-.05-.03-.02.01.01.02.03.04.04.04.04-.08-.12-.04-.04.02.03.04.07.05.1l-.05-.12c.02.06.04.11.05.17l-.02-.13c0,.08,0,.16,0,.24l.02-.13c-.01.1-.04.2-.08.29l.05-.12c-.03.06-.06.12-.09.17-.02.02-.03.05-.05.07-.03.05.09-.1.04-.05-.01.01-.02.02-.03.04-.02.02-.04.04-.06.06-.01.01-.02.02-.03.03-.04.04.11-.08.05-.04-.05.03-.1.06-.15.09l.12-.05c-.05.02-.1.03-.16.04l.13-.02c-.05,0-.11,0-.16,0l.13.02c-.07-.01-.14-.03-.21-.06l.12.05c-.07-.03-.13-.07-.19-.11-.05-.03.08.07.04.03-.01-.01-.02-.02-.04-.03-.02-.02-.05-.05-.07-.07-.18-.19-.53-.19-.71,0-.19.21-.19.5,0,.71.41.45,1.13.63,1.65.26.41-.3.67-.76.69-1.27,0-.23-.05-.5-.19-.69-.18-.25-.44-.43-.74-.51-.59-.15-1.23.03-1.57.55-.14.22-.22.52-.2.78.02.33.14.62.35.86.17.2.53.19.71,0,.19-.21.18-.5,0-.71Z"/>
    <path class="cls-3" d="M1.07,7.3c-.35-1.98.55-3.74,1.86-5.12.73-.78,1.66-1.24,2.75-1.19.77.04,1.51.34,2.14.76.54.36,1.04-.51.5-.86C6.91-.06,5.04-.33,3.5.47c-.77.4-1.37,1.05-1.9,1.73-.47.6-.89,1.22-1.18,1.93C-.02,5.23-.1,6.41.1,7.57c.11.63,1.07.36.96-.27h0Z"/>
  </g>
</svg>