<?xml version="1.0" encoding="UTF-8"?>
<svg id="Layer_2" data-name="Layer 2" xmlns="http://www.w3.org/2000/svg" viewBox="0 0 12.61 15.6">
  <defs>
    <style>
      .cls-1 {
        fill: #273137;
      }
    </style>
  </defs>
  <g id="Layer_1-2" data-name="Layer 1">
    <path class="cls-1" d="M4.35,1.29c.95-.31,2.3-.48,3.23.03.69.37.79,1.22,1.16,1.86.76,1.34,2.12,2.36,2.73,3.78.49,1.14-.14,2.7-.5,3.8s-1.08,1.7-2.19,2.03c-1.72.52-3.84.06-4.47,2.21-.18.62.78.88.96.27.32-1.09,1.27-1.08,2.22-1.21.81-.11,1.61-.27,2.35-.61,1.76-.8,2.23-2.58,2.62-4.33.19-.86.26-1.8-.11-2.62-.29-.65-.81-1.22-1.24-1.78-.38-.5-.79-.97-1.16-1.48-.43-.6-.61-1.27-.96-1.9C8.1-.29,5.58-.16,4.08.32c-.61.2-.35,1.16.27.96h0Z"/>
    <path class="cls-1" d="M5.95,5.46c-.41-.38-1.03-.39-1.5-.11-.57.34-.71.98-.75,1.6-.02.26-.03.52-.09.78-.05.21-.18.4-.3.61-.28.47-.53,1.03-.34,1.58s.77.91,1.36.76c.3-.07.51-.28.75-.46.05-.04.11-.08.16-.11.01,0,.08-.03.04-.02.12-.02.26.02.38.03.63.09,1.24.01,1.7-.48.39-.42.57-1.03.29-1.56-.17-.32-.48-.56-.77-.79-.05-.04-.01-.01,0,0-.03-.02-.05-.05-.08-.07-.05-.05-.02-.01-.07-.09-.07-.1-.13-.23-.15-.29-.19-.47-.27-1-.62-1.38-.44-.47-1.15.24-.71.71.02.02.04.04.05.06-.09-.12-.03-.04-.02-.02s.1.21.07.14c.07.18.13.37.19.55.14.4.31.81.63,1.1.16.15.34.26.5.43.05.05.06.06.1.12,0,.01.04.08.01.01,0,.01.06.15.02.06v.05c.01-.05.01-.05,0,.01-.03.12-.08.22-.19.32-.1.09-.22.16-.39.18-.22.02-.45-.04-.67-.07-.28-.03-.54,0-.79.15-.2.11-.36.28-.56.41.02-.01-.14.09-.08.05.04-.03-.11.02,0,0,0,0-.15.01-.08,0,.04,0,.03,0-.03-.01.05.02.04.02,0,0-.08-.05-.03-.02-.01,0-.09-.07.02.05-.04-.05-.05-.08-.02-.04-.01-.02,0,0-.03-.16-.02-.08-.01-.17.04-.3.12-.45.2-.38.46-.73.56-1.16.06-.27.09-.54.1-.81.01-.23.02-.48.1-.7.02-.05.04-.09.07-.13-.04.06.04-.04.05-.05-.06.05.02-.01.04-.03.02-.01.04-.03.07-.04-.04.02-.04.01.02,0,.03,0,.06-.02.09-.02-.09.02.07,0,.1,0-.08,0,0,0,0,0-.05-.02-.05-.02,0,0-.04-.04-.04-.04,0,0,.47.44,1.18-.27.71-.71Z"/>
    <path class="cls-1" d="M3.89,3.8c.63-.41,1.6-.57,2.32-.3.91.34.88,1.44,1.34,2.16.49.76,1.44,1.08,1.58,2.04.11.81-.24,1.7-.78,2.3-.32.35-.71.64-1.17.77-.52.14-1.06.14-1.56.37-.83.38-1.38,1.27-2.34,1.34-.81.06-1.64-.29-2.06-1.01-.5-.86-.04-1.46.5-2.14.67-.86,1.09-1.82,1.36-2.87.13-.5.22-1.01.33-1.52.1-.46.19-.91.57-1.21.5-.4-.21-1.1-.71-.71-.83.66-.86,1.92-1.09,2.87-.15.62-.34,1.22-.61,1.81-.23.49-.55.89-.88,1.32-.66.85-.95,1.71-.47,2.73.45.95,1.38,1.57,2.42,1.7.5.06,1.04.03,1.51-.16.56-.23.99-.65,1.48-1s1.01-.39,1.59-.5c.61-.12,1.16-.44,1.61-.86.77-.72,1.27-1.8,1.29-2.85,0-.48-.09-.97-.31-1.4-.25-.49-.67-.73-1.06-1.1-.52-.49-.61-1.11-.89-1.73-.25-.56-.66-.99-1.23-1.23-1-.41-2.35-.25-3.25.34-.54.35-.04,1.22.5.86Z"/>
  </g>
</svg>