<?xml version="1.0" encoding="UTF-8"?>
<svg id="Layer_2" data-name="Layer 2" xmlns="http://www.w3.org/2000/svg" viewBox="0 0 9.39 10.68">
  <defs>
    <style>
      .cls-1 {
        fill: #283138;
      }

      .cls-2 {
        fill: #273137;
      }
    </style>
  </defs>
  <g id="Layer_1-2" data-name="Layer 1">
    <path class="cls-1" d="M1.06,9.51c-.06-.07.03.02.03.04,0-.01-.03-.04-.04-.06-.02-.04-.04-.07-.06-.11l.05.12c-.03-.07-.05-.15-.06-.22l.02.13c-.01-.08,0-.17,0-.25l-.02.13c.01-.08.03-.15.06-.22l-.05.12s.04-.08.06-.12c.06-.09-.05.06-.03.03.02-.02.03-.03.05-.05.01-.01.03-.03.04-.04.06-.05-.12.08-.02.02.04-.03.08-.05.13-.07l-.12.05c.07-.03.15-.05.23-.06l-.13.02c.1-.01.19-.01.29,0l-.13-.02c.09.01.18.04.27.07l-.12-.05s.08.04.12.06c.02.01.04.02.05.04-.13-.08-.07-.05-.03-.02.01.01.02.03.04.04.04.04-.08-.12-.04-.04.02.03.04.07.05.1l-.05-.12c.02.06.04.11.05.17l-.02-.13c0,.08,0,.16,0,.24l.02-.13c-.01.1-.04.2-.08.29l.05-.12c-.03.06-.06.12-.09.17-.02.02-.03.05-.05.07-.03.05.09-.1.04-.05-.01.01-.02.02-.03.04-.02.02-.04.04-.06.06-.01.01-.02.02-.03.03-.04.04.11-.08.05-.04-.05.03-.1.06-.15.09l.12-.05c-.05.02-.1.03-.16.04l.13-.02c-.05,0-.11,0-.16,0l.13.02c-.07-.01-.14-.03-.21-.06l.12.05c-.07-.03-.13-.07-.19-.11-.05-.03.08.07.04.03-.01-.01-.02-.02-.04-.03-.02-.02-.05-.05-.07-.07-.18-.19-.53-.19-.71,0-.19.21-.19.5,0,.71.41.45,1.13.63,1.65.26.41-.3.67-.76.69-1.27,0-.23-.05-.5-.19-.69-.18-.25-.44-.43-.74-.51-.59-.15-1.23.03-1.57.55-.14.22-.22.52-.2.78.02.33.14.62.35.86.17.2.53.19.71,0,.19-.21.18-.5,0-.71Z"/>
    <path class="cls-2" d="M8.3,3.88c.19.96.07,1.88-.18,2.81-.16.6-.28,1.67-.89,2.01-.64.36-1.6-.06-2.1-.49-.65-.55-.73-1.51-1.52-1.93-.37-.19-.76-.1-1.13-.23-.43-.16-.8-.49-1.03-.88-.51-.87,0-1.9.35-2.74.39-.92,1.05-1.6,2.12-1.44.3.05.57.16.85.27.45.18.72-.13,1.16-.22,1.55-.32,2.13,1.69,2.37,2.84.13.63,1.1.36.96-.27-.19-.89-.48-1.8-1.03-2.53C7.38-.04,6.05-.24,4.82.42h.5C3.85-.33,2.09-.12,1.21,1.38c-.43.73-.81,1.69-.95,2.52-.15.89.16,1.74.79,2.38.26.27.58.49.93.64.19.08.39.15.59.18.16.02.35,0,.5.04.36.1.5.56.65.86.18.35.41.67.7.92,1.03.9,2.94,1.41,3.89.12.49-.66.66-1.58.85-2.37.25-1.02.3-2.02.1-3.05-.12-.63-1.09-.36-.96.27Z"/>
    <path class="cls-1" d="M3.69,2.24c-.46.11-.76.54-.93.94-.21.49-.31,1.02-.22,1.55.04.24.15.47.31.65.21.23.49.3.79.3.16,0,.16,0,.31.03.06.02.1.04.15.06.03.02.07.04.1.06.01,0,.07.05.03.02.08.06.2.2.23.23-.02-.02.05.07.07.1.03.05.06.1.1.15.31.48.71.9,1.33.91.67,0,1.25-.57,1.22-1.25,0-.18-.06-.36-.1-.54-.01-.06-.03-.13-.04-.19,0-.03-.01-.06-.02-.09,0,.04,0,.08,0,.02,0-.2.06-.36.08-.59.05-.51-.08-1.11-.38-1.53-.21-.29-.51-.51-.87-.53-.13,0-.26.02-.39.05-.05.01-.1.03-.15.04-.01,0-.1.02-.04.01s-.08,0-.08,0c-.14,0-.27-.02-.41-.07-.1-.03-.05-.02-.02,0-.03-.02-.07-.03-.1-.05-.05-.03-.09-.06-.14-.09-.26-.17-.49-.25-.81-.2-.27.04-.41.38-.35.62.08.29.35.39.62.35,0,0-.11.01-.05.01s-.06,0-.06,0c.08.02-.08-.05,0,0,.06.05.13.08.19.12.2.13.43.24.67.28.28.06.56.06.84,0,.08-.02.15-.04.23-.06.07-.02.07-.03,0,0,.01,0,.04,0,.05,0,.07,0-.1,0-.03,0,.05,0-.01,0-.03-.01.02.01.04.02.05.03.04.04-.01-.01-.02-.01.02.02.04.04.06.06.06.06,0-.03.03.04.03.05.05.09.08.14s0,0,0,0c0,.02.02.05.03.07.02.05.03.09.04.14s.02.1.03.15c0,.02,0,.05.01.07,0-.05,0-.02,0,.01,0,.09.01.19,0,.28,0,.04,0,.09-.01.13.01-.1,0,0-.01.04-.05.22-.07.43-.04.65.01.11.03.22.06.33.01.06.03.13.05.19,0,.04.02.07.03.11,0,.02.01.09,0,.03,0,.02.01.15,0,.07,0,0-.02.08,0,.03s-.01.03-.01.03c-.01.05-.04.07-.1.1-.05.03,0,0,.01,0-.03.01-.06.02-.09.02.08-.01-.04,0-.07,0,.07,0-.06-.02-.08-.03.08.03-.04-.02-.06-.04-.05-.03,0,.01.02.02-.02-.01-.03-.03-.05-.04-.03-.03-.06-.06-.09-.09-.04-.04,0,.01.01.02-.01-.02-.03-.03-.04-.05-.03-.04-.06-.08-.08-.12-.26-.4-.52-.78-.96-1.01-.27-.14-.55-.21-.85-.22-.04,0-.09,0-.13,0-.02,0-.04,0-.06,0-.06,0,.03,0,.04,0-.08-.05.06.04-.02,0,.02.01.03.03.02,0-.01-.05.04.07.02.02-.01-.02-.02-.04-.03-.06-.04-.05.03.08,0,.02-.01-.04-.03-.08-.04-.13,0-.02,0-.04-.01-.06-.02-.07,0,.09,0,.01,0-.05,0-.1,0-.15s0-.1,0-.15c0-.02,0-.04,0-.07,0,.05,0,.05,0,0,.02-.11.04-.21.07-.31.01-.05.03-.1.05-.15,0-.02.02-.04.02-.06-.02.05-.02.04,0,0,.05-.09.1-.19.15-.27.06-.09-.03.02.03-.03.03-.03.06-.06.09-.09.04-.04-.03.03-.04.03,0,0,.04-.04.05-.03,0,0,.09-.03,0,0-.08.03.01,0,.02,0,.26-.06.42-.36.35-.62-.07-.27-.35-.41-.62-.35Z"/>
  </g>
</svg>