<?xml version="1.0" encoding="UTF-8"?>
<svg id="Layer_2" data-name="Layer 2" xmlns="http://www.w3.org/2000/svg" viewBox="0 0 16.74 15">
  <defs>
    <style>
      .cls-1 {
        fill: #283138;
      }

      .cls-2 {
        fill: #fff;
      }

      .cls-3 {
        fill: #273137;
      }
    </style>
  </defs>
  <g id="Layer_1-2" data-name="Layer 1">
    <path class="cls-3" d="M14.22,11.01c-.06.18-.06.17-.12.29-.1.22-.22.43-.35.64-.34.55-.79,1.04-1.33,1.39-.75.49-1.62.71-2.52.66s-1.82-.51-2.67-.82c-.61-.22-.87.75-.27.96.99.36,1.97.83,3.04.86s2.06-.24,2.92-.8c1.05-.68,1.84-1.74,2.26-2.92.22-.61-.75-.87-.96-.27h0Z"/>
    <path class="cls-3" d="M10.77,5.58c-.3-.18-.62-.24-.96-.28-.4-.06-.8-.12-1.2-.11-.67.02-1.51.27-1.7,1.01-.1.38.01.79.29,1.07.13.13.28.21.45.29.08.04.16.07.23.11.04.02.08.05.13.07l.04.03s-.04-.03,0,0c.07.12-.02-.06.01.02.01.02.05.12.01.03.03.07.05.15.08.23.06.2.13.41.23.6.19.35.52.59.88.73s.83.13,1.19-.07c.44-.25.58-.75.7-1.21l-.23.3c.5-.35.84-.92.76-1.54-.07-.56-.45-.99-.91-1.28-.23-.14-.55-.05-.68.18-.14.24-.05.54.18.68.03.02.06.04.09.06.01,0,.06.03.06.04-.03-.06-.07-.06,0,0,.04.04.09.08.13.12.03.03.05.06.07.09-.08-.1.02.04.03.07.01.02.03.05.04.07-.05-.1,0,.02,0,.04,0,.02.02.15.01.05,0,.05,0,.1,0,.15,0-.09,0,.01-.01.03,0,.04-.02.07-.04.11.04-.1-.02.02-.03.04-.01.02-.12.16-.04.06-.04.04-.07.09-.12.12-.03.03-.18.16-.02.03-.08.06-.16.11-.21.2-.08.13-.1.31-.14.45-.03.09-.03.11-.08.2-.02.03-.1.11-.02.04-.03.03-.11.07-.02.02-.03.01-.13.05-.02.02-.04.01-.08.02-.11.03.02,0,.1,0,.01,0-.06,0-.11,0-.17,0,.12.01-.02,0-.04-.01-.04-.01-.08-.02-.13-.04.09.04-.09-.05-.12-.07-.11-.06.05.06-.04-.03-.03-.03-.07-.06-.1-.1.05.06-.01-.03-.02-.04,0-.02-.07-.16-.05-.09-.07-.17-.11-.35-.17-.52-.1-.26-.23-.46-.45-.63-.15-.11-.32-.18-.48-.26-.05-.02-.09-.05-.14-.07-.11-.04.03.05-.04-.03-.02-.03-.07-.12-.03-.02-.01-.02-.03-.04-.04-.07.02.06.03.07.02.03-.02-.04,0-.11,0,0,0-.04.02-.14,0-.02,0-.03.05-.14,0-.03.02-.04.04-.07.06-.1-.03.04,0,.05,0,0l.03-.03s-.04.03,0,0c.04-.02.07-.04.11-.06.05-.02.05-.02-.01,0,.02,0,.05-.02.07-.03.07-.03.15-.05.22-.06.02,0,.15-.02.03,0,.06,0,.11-.01.17-.01.22-.01.43,0,.65.02s.43.05.65.09c.09.02.18.03.27.06.02,0,.14.06.02,0,.05.02.09.05.13.07.23.14.55.05.68-.18s.05-.54-.18-.68Z"/>
    <path class="cls-3" d="M12.46,9.74c-.24.41-.49.85-.87,1.15-.54.45-1.2.48-1.86.36-.77-.13-1.88-.28-2.35-.99-.22-.34-.12-.74-.26-1.11-.17-.46-.52-.8-.9-1.09-.58-.43-1.25-.73-1.95-.93-.1-.03-.16-.04-.18-.06.1.09-.03-.17-.03-.26-.01-.41.2-.85.39-1.2s.36-.72.64-.98c.33-.3.66-.23,1.06-.11.83.25,1.7.56,2.5.05.39-.25.67-.54,1.12-.7s.89-.26,1.34-.09c1.01.39,1.72,1.53,2.01,2.53.36,1.24-.02,2.36-.66,3.43-.33.55.53,1.06.86.5.65-1.09,1.08-2.24.9-3.53s-.82-2.45-1.77-3.25-1.92-.95-3.03-.53c-.32.12-.63.27-.91.47-.18.13-.32.3-.53.39-.47.2-1.01-.05-1.46-.19-.47-.15-.99-.27-1.47-.11s-.81.55-1.08.94c-.53.79-1.19,2.02-.8,2.98.3.75,1.22.77,1.86,1.1.39.2.84.46,1.08.84.12.2.11.37.13.6.03.32.14.62.32.88.69,1.03,2.1,1.29,3.25,1.45.75.1,1.52.01,2.17-.42.6-.4.99-1,1.36-1.61.33-.55-.53-1.06-.86-.5Z"/>
    <path class="cls-2" d="M4.07,9.71c-.35-.11-.95.54-.85,1.19.09.61.75.99,1.08.75.32-.23.28-.98.13-1.43-.06-.17-.15-.46-.35-.52Z"/>
    <path class="cls-1" d="M2.93,11.29s0-.07-.02-.09c.03.05,0,.1,0,.04,0-.05,0-.11,0-.16,0-.03,0-.07,0-.1,0-.1,0,.03,0,.03,0,0,.04-.18.04-.2.02-.05.03-.11.05-.16.04-.11-.04.07,0,.01.01-.02.02-.05.04-.08.03-.05.05-.1.08-.15.01-.02.04-.05.05-.07.02-.03.01-.02-.03.03.01-.02.03-.03.04-.05.04-.04.07-.08.11-.12.02-.01.03-.03.05-.04.08-.08-.09.06,0,0,.04-.03.09-.05.14-.08.06-.03,0,.02-.03.01.02,0,.08-.03.1-.03.03,0,.05-.01.08-.02.1-.02-.08,0,0,0,.03,0,.06,0,.09,0,.01,0,.12.02.04,0-.08-.02.04.01.04.01.02,0,.05.02.07.02.12.03-.09-.05.02,0,.03.02.07.03.1.05l.03.02s.04.03-.01-.01c.02,0,.04.04.05.05.01.01.07.06.07.08,0,0-.07-.1-.01-.02.02.03.04.06.05.09.04.07,0-.02,0-.02.03,0,.04.14.04.17-.04-.11,0-.09,0-.03,0,.02,0,.05,0,.07,0,.02,0,.04,0,.06,0,.11.03-.12,0-.02-.01.05-.02.1-.03.15,0,.02-.01.04-.02.06,0,.02-.01.04-.02.06-.02.05-.01.04.01-.03-.02,0-.06.12-.07.14-.03.05-.05.09-.08.14-.03.04-.06.08-.08.12-.04.06.08-.09,0-.01-.02.02-.04.05-.06.07-.07.08-.15.15-.23.22s.09-.06,0,0c-.02.01-.03.02-.05.03-.05.03-.1.06-.15.09-.01,0-.1.04-.02.01.09-.03-.03,0-.04.01s-.03.01-.05.02c-.02,0-.03,0-.05.01-.05,0-.03,0,.06,0-.02-.01-.11,0-.13,0-.05,0,.13.04.03,0-.11-.04-.02.02,0,0,0,0-.09-.05-.09-.05.05.04.06.05.03.03-.01-.01-.03-.02-.04-.03-.02-.02-.04-.05-.06-.06-.02-.03-.02-.02.02.03-.01-.02-.03-.04-.04-.06-.01-.02-.02-.04-.04-.06-.01-.02-.02-.04-.03-.06-.02-.05-.02-.04,0,.03-.03,0-.05-.15-.06-.18-.06-.25-.36-.43-.62-.35s-.42.34-.35.62c.09.35.28.68.57.91s.68.3,1.04.2c.59-.16,1.1-.67,1.38-1.2.33-.63.36-1.4-.18-1.93-.29-.28-.69-.46-1.1-.46-.39,0-.73.16-1.02.4-.58.49-.86,1.34-.69,2.08.06.26.37.43.62.35.27-.09.41-.34.35-.62Z"/>
    <path class="cls-3" d="M16.7,5.31c-.68-1.6-1.68-3.49-3.18-4.47C12.26.01,9.99-.35,8.66.45c-.63.38-1.05.96-1.86.6-.69-.3-1.19-.64-1.98-.68-1.35-.07-2.66.46-3.17,1.75-.36.92-.96,1.69-1.38,2.57-.37.79-.22,1.62.19,2.36.31.56,1.18.06.86-.5-.56-1.01-.04-1.6.46-2.46.37-.63.56-1.45.98-2.04.44-.63,1.5-.75,2.2-.68.8.08,1.36.72,2.16.78s1.28-.33,1.9-.76c.85-.59,2-.38,2.94-.14,2,.52,3.13,2.8,3.87,4.55.25.59,1.11.08.86-.5h0Z"/>
    <path class="cls-3" d="M4.33,13.2c-.65.37-1.54.45-2.21.13-.95-.45-1.28-1.51-1.08-2.48.06-.26-.08-.54-.35-.62-.25-.07-.56.08-.62.35-.29,1.36.18,2.91,1.48,3.58,1.02.53,2.28.46,3.27-.1.56-.32.06-1.18-.5-.86h0Z"/>
  </g>
</svg>